<svg enable-background="new 275.775 237.026 136.418 54.016" height="54.016" viewBox="275.775 237.026 136.418 54.016" width="136.418" xmlns="http://www.w3.org/2000/svg"><path d="m318.729 264.539c1.346-.592 2.572-1.626 3.451-3.054 2.125-3.454 1.419-7.861-1.575-9.838-2.994-1.982-7.144-.786-9.267 2.669-2.08 3.381-1.44 7.674 1.404 9.708-5.248-.37-10.768-.561-16.142-.57.517-.491.99-1.051 1.394-1.688 2.396-3.774 1.608-8.58-1.759-10.738-3.37-2.16-8.042-.852-10.439 2.923-2.07 3.264-1.757 7.293.539 9.721-3.467.161-6.73.41-9.647.751l1.361 2.756c6.383-1.333 39.131-3.755 54.296-.493-3.747-.902-8.445-1.62-13.616-2.147zm-5.216-9.837c1.658-2.699 4.606-3.558 6.656-2.206 2.049 1.354 2.424 4.41.768 7.111-1.658 2.697-4.664 3.787-6.713 2.434-2.05-1.356-2.37-4.641-.711-7.339zm-25.253-.355c1.886-2.967 5.181-3.915 7.487-2.438 2.306 1.476 2.749 4.82.864 7.789-1.883 2.966-5.279 4.175-7.586 2.697-2.305-1.476-2.648-5.08-.765-8.048zm-9.016 6.04-.984-2.807 1.597-.023c1.019-.136 1.381-.964 1.136-2.179l-.978-7.175 4.091-.343c.871-.087 1.628-.464 2.49-2.262l2.472-5.097c4.153-.597 16.738.115 20.495.459l5.081 5.578c1.012 1.152 2.283 1.414 2.283 1.414l12.399 4.117-2.24 9.268 5.135 1.177-3.52-1.523 3.361-7.597c.457-1.678.022-3.307-2.382-3.997l-12.351-3.974-5.537-6.426c-.49-.522-.813-1.025-2.613-1.161-7.33-.553-15.396-1.133-19.551-.603-1.855.237-2.959.634-3.913 2.979l-1.907 4.865-4.281-.024c-2.86-.057-3.64 2.154-2.975 3.898l2.399 7.119-3.062.433z" fill="#e89719"/><path d="m281.094 285.291-1.242 4.762c-.116.465-.145.495-.636.495h-2.861c-.434 0-.579-.087-.579-.349l.087-.348 5.696-18.732c.144-.464.173-.493.636-.493h3.006c.464 0 .492.028.636.493l5.696 18.732c.058.175.086.289.086.377 0 .232-.144.32-.577.32h-3.152c-.491 0-.549-.03-.665-.495l-1.243-4.762zm4.136-2.73-1.071-4.965c-.259-1.191-.345-1.713-.723-3.921-.26 1.686-.376 2.353-.752 3.921l-1.155 4.965zm10.727-11.935c.521 0 .606.087.606.609v12.575c0 1.857.087 2.41.52 3.02.521.727 1.33 1.074 2.43 1.074 2.283 0 3.208-1.19 3.208-4.037v-12.632c0-.522.087-.609.607-.609h2.602c.549 0 .607.058.607.609v12.575c0 2.496-.376 3.774-1.475 4.995-1.386 1.538-3.237 2.236-5.839 2.236-2.631 0-4.454-.784-5.551-2.411-.781-1.104-1.069-2.469-1.069-4.82v-12.575c0-.552.058-.609.605-.609zm23.826 0h-11.309c-.549 0-.606.087-.606.609v2.265c0 .524.058.582.606.582h3.645v15.855c0 .551.058.61.606.61h2.807c.549 0 .606-.059.606-.61v-15.855h3.644c.549 0 .606-.058.606-.582v-2.265c.002-.522-.056-.609-.605-.609zm13.18 1.569c1.446 1.654 2.14 4.355 2.14 8.159 0 3.979-.723 6.739-2.255 8.539-1.185 1.422-2.862 2.149-4.973 2.149-4.829 0-7.083-3.485-7.083-10.89 0-2.438.463-4.995 1.156-6.331 1.214-2.353 3.413-3.688 6.044-3.688 1.994-.001 3.844.784 4.971 2.062zm-8.008 8.305c0 4.994.983 7.404 2.978 7.404 2.024 0 3.007-2.438 3.007-7.317 0-4.937-.983-7.318-2.978-7.318-1.938 0-3.007 2.555-3.007 7.231zm19.371-2.062c.173.522.52 2.062.781 3.339.491-1.857.636-2.409.983-3.367l2.457-7.319c.145-.436.173-.464.636-.464h2.717c.521 0 .579.087.607.581l.925 18.73.028.203c0 .292-.173.408-.606.408h-2.603c-.52 0-.608-.087-.608-.581l-.201-10.251v-.988c0-.493 0-.493.028-3.193-.433 1.917-.78 3.283-1.07 4.21l-1.849 5.954c-.146.435-.175.464-.666.464h-1.764c-.463 0-.52-.029-.635-.494l-1.619-5.663c-.173-.61-.753-2.962-1.071-4.472l.03 3.658v.9l-.231 9.875c0 .494-.087.581-.606.581h-2.343c-.433 0-.578-.116-.578-.437v-.174l.839-18.731c.028-.493.116-.58.608-.58h2.861c.433 0 .492.028.636.464zm23.273-6.243c1.446 1.654 2.141 4.355 2.141 8.159 0 3.979-.724 6.739-2.256 8.539-1.186 1.422-2.862 2.149-4.972 2.149-4.83 0-7.084-3.485-7.084-10.89 0-2.438.463-4.995 1.157-6.331 1.214-2.353 3.412-3.688 6.043-3.688 1.994-.001 3.844.784 4.971 2.062zm-8.007 8.305c0 4.994.983 7.404 2.978 7.404 2.022 0 3.006-2.438 3.006-7.317 0-4.937-.983-7.318-2.978-7.318-1.938 0-3.006 2.555-3.006 7.231zm17.866-9.874c2.688 0 3.614.146 4.597.783 1.301.813 2.11 2.499 2.11 4.328 0 1.249-.433 2.439-1.156 3.223-.433.466-.838.727-1.764 1.162 2.314.611 3.643 2.38 3.643 4.791 0 2.063-1.098 4.095-2.658 4.966-.955.494-2.024.668-4.54.668h-4.916c-.549 0-.607-.059-.607-.61v-18.701c0-.522.088-.61.607-.61zm-1.531 8.276h1.214c1.156 0 1.677-.115 2.197-.464.608-.435.983-1.277.983-2.294 0-1.016-.375-1.83-1.07-2.264-.403-.262-.867-.349-1.792-.349h-1.532zm0 8.481h1.359c2.602 0 3.614-.758 3.614-2.702 0-2.004-.983-2.787-3.557-2.787h-1.416zm15.729 2.554c0 .523-.087.61-.607.61h-2.748c-.548 0-.606-.059-.606-.61v-18.701c0-.552.059-.609.606-.609h2.748c.52 0 .607.087.607.609zm20.537 0c0 .523-.086.61-.607.61h-2.748c-.548 0-.606-.059-.606-.61v-18.701c0-.552.059-.609.606-.609h2.748c.521 0 .607.087.607.609zm-6.349-2.94-6.978.001v-15.761c0-.523-.088-.611-.611-.611h-2.754c-.551 0-.608.059-.608.611v18.759c0 .555.057.614.608.614h10.343c.499 0 .552-.052.552-.554v-2.503c.001-.476-.079-.556-.552-.556z" fill="#c41230"/><path d="m339.464 265.311c0 .423-.07.494-.492.494h-2.223c-.445 0-.491-.046-.491-.494v-15.138c0-.446.046-.494.491-.494h3.792c1.777 0 2.784.165 3.579.612 1.171.634 1.873 2.091 1.873 3.807 0 3.175-2.13 5.266-5.336 5.266h-1.193zm.655-8.603c2.059 0 2.785-.635 2.785-2.423 0-1.667-.632-2.208-2.527-2.208h-.913v4.632h.655zm16.615-5.759c1.17 1.339 1.732 3.525 1.732 6.605 0 3.219-.586 5.452-1.825 6.911-.96 1.152-2.318 1.738-4.025 1.738-3.909 0-5.733-2.821-5.733-8.814 0-1.975.372-4.045.936-5.126.983-1.903 2.761-2.983 4.89-2.983 1.615.001 3.113.634 4.025 1.669zm-6.482 6.724c0 4.042.796 5.993 2.411 5.993 1.638 0 2.434-1.974 2.434-5.923 0-3.997-.796-5.925-2.412-5.925-1.568 0-2.433 2.069-2.433 5.855zm19.017 5.216h-5.63v-12.716c0-.422-.072-.494-.492-.494h-2.223c-.446 0-.492.048-.492.494v15.138c0 .448.046.494.492.494h8.345c.401 0 .444-.041.444-.446v-2.021c0-.384-.064-.449-.444-.449zm10.777-11.94c1.168 1.339 1.73 3.525 1.73 6.605 0 3.219-.585 5.452-1.825 6.911-.96 1.152-2.318 1.738-4.027 1.738-3.907 0-5.733-2.821-5.733-8.814 0-1.975.375-4.045.937-5.126.982-1.903 2.76-2.983 4.89-2.983 1.615.001 3.114.634 4.028 1.669zm-6.484 6.724c0 4.042.795 5.993 2.41 5.993 1.639 0 2.434-1.974 2.434-5.923 0-3.997-.794-5.925-2.411-5.925-1.567 0-2.433 2.069-2.433 5.855zm13.971 1.738.282 1.482.328 1.996c.304-1.645.397-2.044.726-3.478l2.168-9.333c.093-.306.262-.399.425-.399l2.556.004c.273-.004.404.103.334.382l-4.337 15.669c-.119.353-.164.4-.516.4h-2.738c-.398 0-.421-.023-.514-.4l-4.223-15.591c-.065-.193-.038-.464.402-.464l2.726.005c.169.016.318.052.397.418zm14.651-2.42c.538 1.034 1.1 2.398 1.498 3.619-.047-1.786-.047-2.067-.047-2.961v-7.476c0-.422.071-.494.491-.494h1.756c.444 0 .492.048.492.494v15.138c0 .448-.047.494-.492.494h-1.498c-.421 0-.468-.046-.702-.446l-4.024-7.616c-.773-1.458-1.1-2.187-1.499-3.34.07 1.646.07 1.646.07 2.869v8.039c0 .423-.07.494-.49.494h-1.756c-.445 0-.492-.047-.492-.494v-15.138c0-.446.047-.494.492-.494h1.824c.445 0 .47.025.679.4zm9.915 8.32c0 .423-.07.494-.492.494h-2.19c-.445 0-.492-.046-.492-.494v-15.138c0-.446.046-.494.492-.494h2.19c.421 0 .492.072.492.494z" fill="#e89719"/></svg>